<?xml version="1.0" encoding="UTF-8"?>
<svg id="_图层_1" data-name="图层 1" xmlns="http://www.w3.org/2000/svg" xmlns:xlink="http://www.w3.org/1999/xlink" viewBox="0 0 141.73 141.73">
  <defs>
    <style>
      .cls-1, .cls-2 {
        fill: none;
      }

      .cls-3 {
        clip-path: url(#clippath);
      }

      .cls-4 {
        fill: #f9f8f4;
      }

      .cls-5 {
        fill: #060001;
      }

      .cls-6 {
        fill: #e61e41;
      }

      .cls-2 {
        stroke: #060001;
        stroke-miterlimit: 10;
        stroke-width: 9px;
      }
    </style>
    <clipPath id="clippath">
      <path class="cls-1" d="M115.14,103.87s-36.04,9.82-55.29,0c-19.25-9.82-39.17,0-39.17,0V13.14H115.14V103.87Z"/>
    </clipPath>
  </defs>
  <rect class="cls-4" width="141.73" height="141.73"/>
  <g>
    <path class="cls-2" d="M22.59,101.34s19.93-11.68,39.17,0c19.25,11.68,55.29,0,55.29,0"/>
    <g class="cls-3">
      <g>
        <path class="cls-5" d="M92.85,47.82c1.62,0,3.37,.28,5.22,.84,1.86,.56,3.58,1.47,5.18,2.74s2.92,2.92,3.98,4.95c1.07,2.03,1.6,4.52,1.6,7.46v50.08c0,.95-.17,1.83-.51,2.64s-.8,1.51-1.4,2.11-1.29,1.06-2.11,1.4-1.69,.51-2.64,.51H42.73c-.91,0-1.77-.17-2.59-.51s-1.52-.8-2.13-1.4-1.08-1.29-1.42-2.11-.51-1.69-.51-2.64v-44.14c0-1.62,.29-3.37,.86-5.22,.57-1.86,1.5-3.59,2.77-5.2,1.27-1.61,2.92-2.94,4.95-4.01,2.03-1.06,4.52-1.6,7.46-1.6h2.48c2.34,0,4.85,.39,7.53,1.17,2.69,.78,5.23,2.03,7.63,3.75,.91-1.49,2.01-2.88,3.3-4.18,1.29-1.3,2.78-2.44,4.46-3.42,1.69-.98,3.6-1.76,5.73-2.34,2.13-.57,4.48-.86,7.05-.86h2.55Zm-2.54,13.19c-1.73,0-3.27,.27-4.64,.81-1.37,.54-2.54,1.3-3.53,2.28-.98,.98-1.73,2.17-2.26,3.55-.52,1.39-.79,2.94-.79,4.67v29.73h-13.29v-23.79c0-1.73-.26-3.28-.79-4.67-.53-1.39-1.27-2.57-2.26-3.55-.98-.98-2.16-1.73-3.53-2.26-1.37-.52-2.92-.79-4.64-.79h-2.48c-1.89,0-2.84,.91-2.84,2.74v37.6h46.38V63.8c0-.23-.02-.52-.05-.86s-.13-.64-.3-.91c-.17-.27-.46-.51-.86-.71-.4-.2-.97-.3-1.67-.3h-2.44Z"/>
        <path class="cls-6" d="M101.54,35.33c-3.65,0-6.72-2.78-6.72-6.42s3.07-6.57,6.72-6.57c3.94,0,6.57,2.78,6.57,6.57-.15,4.09-2.92,6.42-6.57,6.42Z"/>
      </g>
    </g>
  </g>
</svg>